Coordinates
version=1
nRows=6
nColumns=46
inDegrees=yes

Units are S.I. units (second, meters, Newtons, ...)
Angles are in degrees.

endheader
time	pelvis_tilt	pelvis_list	pelvis_rotation	pelvis_tx	pelvis_ty	pelvis_tz	bb_angle	bb_tx	bb_ty	bb_tz	hip_flexion_r	hip_adduction_r	hip_rotation_r	knee_angle_r	knee_angle_r_beta	ankle_angle_r	subtalar_angle_r	mtp_angle_r	crank_angle_r	hip_flexion_l	hip_adduction_l	hip_rotation_l	knee_angle_l	knee_angle_l_beta	ankle_angle_l	subtalar_angle_l	mtp_angle_l	crank_angle_l	lumbar_extension	lumbar_bending	lumbar_rotation	arm_flex_r	arm_add_r	arm_rot_r	elbow_flex_r	pro_sup_r	wrist_flex_r	wrist_dev_r	arm_flex_l	arm_add_l	arm_rot_l	elbow_flex_l	pro_sup_l	wrist_flex_l	wrist_dev_l
      7.50000000	    -32.29318287	     -0.24153433	      3.86022134	      0.35503983	      1.20479946	     -0.23936923	      0.00000000	      0.50000000	      0.00000000	      0.25000000	     65.17546053	     -3.46578268	      0.20288327	     80.76312975	      1.40958253	    -29.09532164	    -15.53741481	      0.00000000	      0.00000000	     64.03165533	     -1.33023201	      3.44379303	     50.67053648	      0.88436770	     -4.88699029	    -11.74972414	      0.00000000	      0.00000000	    -62.93694701	      3.52042766	     -3.99451286	     69.23935177	    -11.70012526	     28.24788083	     82.29514206	     58.18689894	      0.00000000	      0.00000000	     52.01277914	    -42.89514389	     14.49062555	    103.04723126	     54.38641756	      0.00000000	      0.00000000
      7.50500000	    -32.24716874	     -0.63291734	      3.52870378	      0.35445640	      1.20374267	     -0.24007782	      0.00000000	      0.50000000	      0.00000000	      0.25000000	     66.36185636	     -3.02606879	      0.09657289	     82.82889281	      1.44563690	    -27.98963991	    -15.70729302	      0.00000000	      0.00000000	     62.49003212	     -1.91585081	      3.30219742	     48.24893904	      0.84210285	     -5.62869998	    -11.23594663	      0.00000000	      0.00000000	    -62.89030811	      3.86036911	     -3.42088946	     69.49502933	    -11.71971784	     28.39539550	     82.30271878	     58.21369271	      0.00000000	      0.00000000	     51.60006740	    -42.86955488	     14.37069142	    102.97368581	     54.37248193	      0.00000000	      0.00000000
      7.51000000	    -32.27061980	     -1.17926887	      3.16130235	      0.35376022	      1.20248579	     -0.24062359	      0.00000000	      0.50000000	      0.00000000	      0.25000000	     67.61271023	     -2.45335247	     -0.16414182	     84.78701365	      1.47981255	    -26.94740478	    -16.06745587	      0.00000000	      0.00000000	     61.07633241	     -2.62352573	      3.24601352	     45.91765859	      0.80141433	     -6.29549588	    -10.70277109	      0.00000000	      0.00000000	    -62.76382356	      4.25394362	     -2.71571448	     69.74317688	    -11.68254699	     28.56104420	     82.31030191	     58.23557237	      0.00000000	      0.00000000	     51.28682147	    -42.87389294	     14.32880293	    102.93174160	     54.36881643	      0.00000000	      0.00000000
      7.51500000	    -32.02243072	     -1.27602924	      3.04549351	      0.35322286	      1.20176610	     -0.24149672	      0.00000000	      0.50000000	      0.00000000	      0.25000000	     68.63220526	     -2.37615285	     -0.07960853	     86.88613492	      1.51644913	    -25.21766768	    -15.50957369	      0.00000000	      0.00000000	     59.22138823	     -2.78439370	      2.98358614	     43.39515744	      0.75738838	     -7.46593282	    -10.78115430	      0.00000000	      0.00000000	    -62.92147333	      4.62946499	     -2.54763572	     70.47486002	    -12.02372986	     29.73244081	     82.04944886	     58.35514014	      0.00000000	      0.00000000	     50.80219398	    -42.66682979	     13.76497168	    102.79964224	     54.30953660	      0.00000000	      0.00000000
      7.52000000	    -31.91785013	     -1.59258641	      2.75745384	      0.35257427	      1.20075675	     -0.24226782	      0.00000000	      0.50000000	      0.00000000	      0.25000000	     69.77904952	     -2.04702520	     -0.20345245	     88.79815191	      1.54982012	    -23.88362686	    -15.65422810	      0.00000000	      0.00000000	     57.61926569	     -3.25687044	      2.67913855	     41.06015596	      0.71663491	     -8.43300990	    -10.47631089	      0.00000000	      0.00000000	    -62.92364760	      4.97764970	     -2.10930592	     71.02184961	    -12.17505644	     30.46231906	     81.82016603	     58.41705958	      0.00000000	      0.00000000	     50.38057171	    -42.56616667	     13.51866320	    102.76055127	     54.29704480	      0.00000000	      0.00000000
      7.52500000	    -31.82452281	     -1.93242737	      2.58504228	      0.35173128	      1.19983218	     -0.24307116	      0.00000000	      0.50000000	      0.00000000	      0.25000000	     70.95099559	     -1.82063010	     -0.41473471	     90.66317780	      1.58237096	    -22.52434042	    -15.83124498	      0.00000000	      0.00000000	     56.07516737	     -3.64275281	      2.47760471	     38.77162066	      0.67669244	     -9.54036331	    -10.18049731	      0.00000000	      0.00000000	    -62.92030165	      5.42864417	     -1.65464013	     71.55000001	    -12.31880775	     31.12142372	     81.63006054	     58.47208545	      0.00000000	      0.00000000	     50.06726475	    -42.47161007	     13.36983229	    102.68285221	     54.28661041	      0.00000000	      0.00000000
